<svg xmlns="http://www.w3.org/2000/svg" xmlns:xlink="http://www.w3.org/1999/xlink" version="1.1" id="Livello_1" x="0px" y="0px" width="100px" height="100px" viewBox="5.0 -10.0 100.0 135.0" enable-background="new 0 0 100 100" xml:space="preserve">
<g>
	<g>
		<path d="M94.917,24.6c-1.772-3.081-4.004-5.327-6.421-6.533c0.073,0.835-0.005,1.68-0.225,2.495    c4.507,2.817,9.448,10.977,9.448,29.468c0,18.384-4.722,25.713-7.539,28.442c-0.605,0.581-1.191,1.035-1.753,1.387    c0.103,0.488,0.156,0.986,0.156,1.494c0,0.356-0.029,0.708-0.078,1.055c1.035-0.483,2.139-1.211,3.257-2.3    C95.522,76.465,100,68.291,100,50.029C100,39.033,98.291,30.474,94.917,24.6z"/>
	</g>
	<g>
		<path d="M79.443,88.267c-2.817,4.507-10.972,9.453-29.473,9.453c-18.384,0-25.713-4.727-28.442-7.539    c-0.576-0.596-1.021-1.172-1.372-1.729c-0.464,0.093-0.947,0.142-1.436,0.142c-0.381,0-0.757-0.029-1.128-0.088    c0.483,1.035,1.211,2.139,2.3,3.257C23.535,95.522,31.709,100,49.971,100c10.996,0,19.556-1.709,25.43-5.083    c3.076-1.768,5.313-3.989,6.523-6.401C81.089,88.579,80.249,88.496,79.443,88.267z"/>
	</g>
	<g>
		<path d="M2.28,49.971c0-18.384,4.727-25.713,7.539-28.442c0.615-0.596,1.216-1.055,1.792-1.411    c-0.088-0.449-0.132-0.913-0.132-1.382c0-0.4,0.034-0.791,0.098-1.177c-1.06,0.479-2.188,1.216-3.34,2.334    C4.478,23.535,0,31.709,0,49.971C0,60.967,1.709,69.526,5.088,75.4c1.782,3.105,4.033,5.361,6.47,6.563    c-0.063-0.835,0.02-1.67,0.244-2.48C7.275,76.709,2.28,68.564,2.28,49.971z"/>
	</g>
	<g>
		<path d="M20.518,11.792C23.301,7.271,31.445,2.28,50.029,2.28c18.384,0,25.713,4.727,28.442,7.539    c0.605,0.625,1.069,1.235,1.426,1.816c0.469-0.093,0.952-0.142,1.445-0.142c0.371,0,0.737,0.029,1.099,0.083    c-0.479-1.06-1.216-2.188-2.334-3.34C76.465,4.478,68.291,0,50.029,0C39.033,0,30.474,1.709,24.6,5.088    c-3.115,1.787-5.371,4.043-6.567,6.489C18.862,11.504,19.707,11.577,20.518,11.792z"/>
	</g>
	<g>
		<path d="M81.753,75.723c0.796-0.986,1.543-1.997,2.236-3.037l0,0l0,0c0.122-0.186,0.239-0.366,0.361-0.552    c0.034-0.059,0.073-0.112,0.107-0.171c0.117-0.181,0.229-0.366,0.342-0.547c0.024-0.034,0.044-0.068,0.063-0.107    c0.366-0.591,0.713-1.196,1.04-1.802c0.034-0.059,0.063-0.112,0.093-0.166c0.103-0.19,0.2-0.381,0.303-0.576    c0.02-0.039,0.039-0.078,0.059-0.117c0.313-0.61,0.61-1.23,0.894-1.855c0.02-0.054,0.049-0.112,0.068-0.166    c0.088-0.195,0.176-0.391,0.259-0.586c0.02-0.049,0.039-0.093,0.059-0.142c0.264-0.625,0.508-1.26,0.742-1.895    c0.02-0.054,0.039-0.107,0.059-0.161c0.068-0.2,0.142-0.4,0.21-0.601c0.015-0.054,0.034-0.103,0.049-0.156    c0.215-0.64,0.415-1.284,0.596-1.934c0.015-0.049,0.029-0.103,0.044-0.156c0.059-0.2,0.112-0.405,0.166-0.605    c0.015-0.059,0.029-0.117,0.044-0.176c0.166-0.649,0.317-1.304,0.449-1.963c0.015-0.049,0.024-0.098,0.034-0.146    c0.039-0.205,0.078-0.41,0.117-0.615c0.01-0.059,0.02-0.122,0.034-0.186c0.117-0.659,0.22-1.328,0.308-1.992    c0.005-0.044,0.01-0.088,0.015-0.132c0.029-0.205,0.054-0.41,0.073-0.62c0.01-0.063,0.015-0.132,0.024-0.195    c0.068-0.674,0.122-1.353,0.161-2.031c0.005-0.034,0.005-0.063,0.005-0.098c0.015-0.21,0.024-0.415,0.029-0.625    c0.005-0.068,0.005-0.132,0.01-0.2c0.005-0.21,0.01-0.42,0.015-0.63c0-0.02,0-0.034,0-0.054c0.01-0.464,0.01-0.933,0-1.396    c0-0.015,0-0.034,0-0.049c-0.005-0.21-0.01-0.42-0.015-0.63c-0.005-0.068-0.005-0.132-0.01-0.2    c-0.005-0.21-0.015-0.415-0.029-0.625c0-0.034,0-0.068-0.005-0.098c-0.039-0.679-0.093-1.357-0.166-2.036    c-0.005-0.063-0.01-0.127-0.02-0.19c-0.02-0.21-0.044-0.415-0.073-0.625c-0.005-0.039-0.01-0.083-0.015-0.122    c-0.088-0.669-0.19-1.338-0.308-1.997c-0.015-0.063-0.024-0.127-0.034-0.186c-0.039-0.205-0.078-0.415-0.122-0.62    C90.02,41.909,90.01,41.86,90,41.816c-0.137-0.659-0.288-1.318-0.454-1.973c-0.015-0.054-0.029-0.112-0.044-0.171    c-0.054-0.205-0.107-0.405-0.166-0.61c-0.015-0.049-0.024-0.098-0.039-0.146c-0.186-0.654-0.386-1.299-0.601-1.943    c-0.015-0.049-0.034-0.103-0.049-0.151c-0.068-0.2-0.142-0.405-0.215-0.605c-0.015-0.049-0.034-0.098-0.054-0.151    c-0.229-0.64-0.479-1.279-0.747-1.909c-0.02-0.044-0.034-0.088-0.054-0.127c-0.083-0.2-0.171-0.4-0.259-0.596    c-0.024-0.054-0.044-0.103-0.068-0.156c-0.283-0.63-0.581-1.25-0.898-1.87c-0.02-0.034-0.034-0.073-0.054-0.107    c-0.103-0.195-0.205-0.386-0.308-0.581c-0.024-0.049-0.054-0.103-0.083-0.151c-0.332-0.62-0.684-1.23-1.055-1.831    c-0.015-0.029-0.034-0.054-0.049-0.083c-0.117-0.186-0.234-0.376-0.352-0.562c-0.034-0.049-0.068-0.103-0.098-0.156    c-0.815-1.265-1.704-2.495-2.671-3.682c1.313-0.078,2.607-0.615,3.613-1.621c2.178-2.178,2.178-5.728,0-7.91    c-2.183-2.178-5.732-2.178-7.91,0c-1.011,1.006-1.543,2.305-1.621,3.623c-1.172-0.952-2.388-1.831-3.638-2.632    c-0.054-0.034-0.107-0.073-0.161-0.107c-0.186-0.117-0.371-0.234-0.557-0.347c-0.029-0.02-0.059-0.039-0.093-0.054    c-0.596-0.366-1.206-0.718-1.816-1.05c-0.054-0.029-0.107-0.059-0.161-0.088c-0.19-0.103-0.381-0.205-0.576-0.303    c-0.039-0.02-0.073-0.039-0.112-0.059c-0.615-0.313-1.24-0.61-1.865-0.894c-0.054-0.024-0.107-0.049-0.156-0.073    c-0.2-0.083-0.396-0.171-0.591-0.254c-0.049-0.02-0.093-0.039-0.137-0.059c-0.63-0.264-1.265-0.513-1.904-0.742    c-0.049-0.02-0.103-0.039-0.156-0.059c-0.2-0.068-0.4-0.142-0.601-0.21c-0.054-0.015-0.103-0.034-0.156-0.054    c-0.64-0.215-1.284-0.41-1.934-0.596c-0.054-0.015-0.103-0.029-0.151-0.044c-0.205-0.054-0.41-0.107-0.61-0.161    c-0.059-0.015-0.117-0.029-0.176-0.044c-0.649-0.166-1.309-0.317-1.963-0.454c-0.049-0.01-0.098-0.02-0.146-0.029    c-0.205-0.039-0.41-0.078-0.615-0.117c-0.063-0.01-0.122-0.024-0.186-0.034c-0.664-0.117-1.328-0.22-1.992-0.308    c-0.044-0.005-0.088-0.01-0.132-0.02c-0.205-0.024-0.41-0.049-0.62-0.068c-0.063-0.01-0.132-0.015-0.195-0.024    c-0.674-0.068-1.348-0.127-2.026-0.161c-0.034-0.005-0.068-0.005-0.103-0.01c-0.21-0.01-0.415-0.02-0.625-0.024    c-0.068-0.005-0.137-0.005-0.2-0.01c-0.21-0.005-0.42-0.015-0.63-0.015c-0.02,0-0.039,0-0.059,0    c-0.229-0.005-0.459-0.01-0.693-0.01c-0.229,0-0.459,0.005-0.688,0.01c-0.02,0-0.039,0-0.063,0c-0.205,0-0.415,0.01-0.625,0.015    c-0.068,0.005-0.137,0.005-0.2,0.01c-0.21,0.005-0.415,0.015-0.625,0.024c-0.034,0.005-0.068,0.005-0.107,0.01    c-0.674,0.034-1.348,0.093-2.021,0.161c-0.068,0.01-0.132,0.015-0.2,0.024c-0.205,0.02-0.41,0.044-0.615,0.068    c-0.044,0.01-0.088,0.015-0.132,0.02c-0.669,0.088-1.333,0.19-1.992,0.308c-0.063,0.01-0.127,0.024-0.19,0.034    c-0.205,0.039-0.41,0.078-0.61,0.117c-0.054,0.01-0.103,0.02-0.151,0.029c-0.654,0.137-1.309,0.288-1.958,0.454    c-0.059,0.015-0.117,0.029-0.176,0.044c-0.205,0.054-0.405,0.107-0.61,0.161c-0.049,0.015-0.103,0.029-0.156,0.044    c-0.645,0.186-1.289,0.381-1.929,0.596c-0.054,0.02-0.107,0.039-0.156,0.054c-0.2,0.068-0.4,0.137-0.601,0.21    c-0.054,0.02-0.107,0.039-0.161,0.059c-0.635,0.229-1.27,0.479-1.899,0.742c-0.044,0.02-0.093,0.039-0.137,0.059    c-0.195,0.083-0.396,0.171-0.591,0.254c-0.054,0.024-0.107,0.049-0.161,0.073c-0.625,0.283-1.245,0.581-1.855,0.894    c-0.044,0.02-0.083,0.039-0.122,0.059c-0.19,0.098-0.381,0.2-0.571,0.303c-0.054,0.029-0.107,0.059-0.161,0.088    c-0.615,0.332-1.221,0.679-1.816,1.045c-0.034,0.02-0.063,0.039-0.098,0.059c-0.186,0.112-0.366,0.229-0.552,0.347    c-0.054,0.034-0.107,0.073-0.166,0.107c-1.25,0.806-2.466,1.68-3.638,2.637c-0.083-1.309-0.62-2.588-1.616-3.584    c-2.183-2.178-5.728-2.178-7.91,0c-2.178,2.183-2.178,5.728,0,7.91c0.996,0.996,2.275,1.533,3.579,1.621    c-0.952,1.172-1.831,2.388-2.637,3.638c-0.034,0.054-0.068,0.107-0.103,0.161c-0.117,0.186-0.234,0.371-0.347,0.557    c-0.02,0.029-0.034,0.059-0.054,0.088c-0.366,0.601-0.718,1.206-1.05,1.821c-0.029,0.054-0.059,0.107-0.088,0.161    c-0.103,0.19-0.205,0.381-0.303,0.576c-0.02,0.034-0.039,0.073-0.054,0.107c-0.317,0.615-0.615,1.24-0.898,1.87    c-0.024,0.054-0.049,0.103-0.073,0.156c-0.083,0.195-0.171,0.396-0.254,0.591c-0.02,0.044-0.039,0.088-0.059,0.132    c-0.264,0.63-0.513,1.27-0.742,1.909c-0.02,0.049-0.039,0.103-0.059,0.151c-0.073,0.205-0.142,0.405-0.21,0.605    c-0.02,0.049-0.034,0.103-0.049,0.151c-0.22,0.645-0.415,1.289-0.601,1.938c-0.015,0.054-0.029,0.103-0.044,0.151    c-0.054,0.205-0.107,0.41-0.161,0.615c-0.015,0.054-0.029,0.107-0.044,0.166c-0.166,0.654-0.317,1.309-0.454,1.968    c-0.01,0.049-0.02,0.098-0.029,0.142c-0.039,0.205-0.078,0.415-0.117,0.62c-0.01,0.059-0.024,0.122-0.034,0.181    c-0.117,0.664-0.22,1.333-0.308,2.002c-0.005,0.039-0.01,0.083-0.02,0.122c-0.024,0.21-0.049,0.42-0.073,0.625    c-0.005,0.063-0.01,0.127-0.02,0.19c-0.068,0.679-0.127,1.357-0.166,2.036c0,0.034,0,0.063-0.005,0.098    c-0.01,0.21-0.02,0.42-0.029,0.625c0,0.068,0,0.132-0.005,0.195c-0.005,0.21-0.015,0.425-0.015,0.635c0,0.015,0,0.029-0.005,0.049    c-0.005,0.469-0.005,0.933,0,1.401c0.005,0.015,0.005,0.034,0.005,0.049c0,0.21,0.01,0.42,0.015,0.635    c0.005,0.063,0.005,0.127,0.005,0.19c0.01,0.21,0.02,0.42,0.029,0.63c0.005,0.034,0.005,0.063,0.005,0.098    c0.039,0.679,0.098,1.357,0.166,2.036c0.01,0.063,0.015,0.127,0.02,0.19c0.024,0.205,0.049,0.415,0.073,0.625    c0.01,0.039,0.015,0.078,0.02,0.122c0.088,0.669,0.19,1.338,0.308,2.002c0.01,0.059,0.024,0.117,0.034,0.181    c0.039,0.205,0.078,0.41,0.117,0.62c0.01,0.044,0.02,0.093,0.029,0.137c0.137,0.664,0.288,1.318,0.454,1.973    c0.015,0.054,0.029,0.112,0.044,0.166c0.054,0.205,0.107,0.41,0.161,0.615c0.015,0.049,0.029,0.098,0.044,0.146    c0.186,0.654,0.381,1.299,0.601,1.943c0.015,0.049,0.029,0.098,0.049,0.151c0.068,0.2,0.137,0.4,0.21,0.601    c0.02,0.054,0.039,0.107,0.059,0.156c0.229,0.64,0.479,1.274,0.742,1.904c0.02,0.044,0.039,0.088,0.059,0.132    c0.083,0.2,0.171,0.396,0.254,0.596c0.024,0.054,0.049,0.103,0.073,0.156c0.283,0.63,0.581,1.25,0.898,1.87    c0.015,0.034,0.034,0.073,0.054,0.107c0.098,0.195,0.2,0.386,0.303,0.576c0.029,0.054,0.059,0.107,0.088,0.161    c0.332,0.615,0.684,1.221,1.05,1.821c0.02,0.029,0.034,0.059,0.054,0.088c0.112,0.186,0.229,0.371,0.347,0.557    c0.034,0.054,0.068,0.107,0.103,0.161c0.806,1.25,1.685,2.466,2.642,3.643c-1.289,0.093-2.554,0.63-3.54,1.616    c-2.178,2.178-2.178,5.728,0,7.91c2.183,2.178,5.728,2.178,7.91,0c0.986-0.991,1.523-2.256,1.616-3.55    c1.167,0.947,2.378,1.821,3.618,2.617c0.039,0.029,0.083,0.054,0.122,0.078c0.195,0.127,0.391,0.249,0.591,0.371    c0.005,0.005,0.01,0.005,0.02,0.01c0.63,0.386,1.27,0.757,1.914,1.104c0.029,0.02,0.059,0.034,0.093,0.054    c0.21,0.107,0.415,0.22,0.625,0.327c0.01,0.005,0.015,0.01,0.024,0.01c0.654,0.337,1.318,0.659,1.987,0.957    c0.024,0.01,0.044,0.02,0.068,0.029c0.22,0.098,0.435,0.195,0.654,0.288c0.015,0.005,0.024,0.01,0.034,0.015    c0.674,0.283,1.357,0.547,2.041,0.796c0.02,0.005,0.039,0.015,0.054,0.02c0.225,0.083,0.449,0.156,0.674,0.234    c0.015,0.005,0.034,0.01,0.054,0.02c0.684,0.229,1.377,0.444,2.07,0.64c0.02,0.005,0.034,0.01,0.054,0.015    c0.225,0.059,0.449,0.122,0.674,0.181c0.029,0.005,0.054,0.015,0.083,0.02c0.693,0.181,1.387,0.337,2.085,0.479    c0.02,0.005,0.039,0.01,0.059,0.015c0.22,0.044,0.439,0.088,0.664,0.127c0.039,0.005,0.078,0.015,0.122,0.02    c0.693,0.127,1.387,0.234,2.085,0.322c0.02,0.005,0.039,0.005,0.059,0.01c0.22,0.029,0.439,0.054,0.659,0.078    c0.049,0.005,0.098,0.01,0.146,0.015c0.698,0.073,1.396,0.132,2.095,0.171c0.015,0,0.034,0,0.054,0    c0.215,0.015,0.43,0.024,0.645,0.029c0.059,0.005,0.117,0.005,0.176,0.01c0.215,0.005,0.435,0.01,0.649,0.015    c0.005,0,0.005,0,0.01,0c0.244,0.005,0.488,0.01,0.732,0.01s0.488-0.005,0.732-0.01c0.005,0,0.01,0,0.015,0    c0.215-0.005,0.43-0.01,0.645-0.015c0.059-0.005,0.122-0.005,0.181-0.01c0.215-0.005,0.425-0.015,0.64-0.029    c0.024,0,0.054,0,0.078,0c0.684-0.039,1.362-0.098,2.046-0.166c0.063-0.01,0.132-0.015,0.2-0.024    c0.205-0.02,0.41-0.044,0.615-0.073c0.044-0.005,0.093-0.01,0.142-0.02c0.654-0.083,1.313-0.186,1.968-0.303    c0.068-0.01,0.142-0.024,0.215-0.039c0.195-0.034,0.391-0.073,0.591-0.112c0.063-0.015,0.127-0.024,0.19-0.039    c0.635-0.132,1.27-0.273,1.895-0.435c0.078-0.02,0.151-0.039,0.229-0.059c0.19-0.049,0.381-0.103,0.566-0.151    c0.073-0.024,0.146-0.044,0.22-0.063c0.62-0.176,1.23-0.361,1.836-0.566c0.078-0.024,0.156-0.054,0.234-0.078    c0.186-0.063,0.366-0.127,0.547-0.19c0.083-0.029,0.161-0.059,0.239-0.088c0.601-0.22,1.196-0.449,1.787-0.698    c0.073-0.029,0.151-0.063,0.225-0.093c0.181-0.078,0.356-0.156,0.532-0.234c0.083-0.034,0.161-0.068,0.239-0.107    c0.586-0.264,1.172-0.542,1.748-0.84c0.068-0.034,0.137-0.068,0.205-0.103c0.176-0.088,0.352-0.181,0.522-0.273    c0.078-0.044,0.151-0.083,0.225-0.122c0.181-0.098,0.361-0.195,0.537-0.298c0.01-0.005,0.02-0.01,0.029-0.015    c0.391-0.22,0.776-0.449,1.162-0.684c0.054-0.034,0.107-0.063,0.166-0.098c0.171-0.107,0.342-0.215,0.513-0.327    c0.073-0.044,0.142-0.088,0.21-0.132c0.176-0.112,0.347-0.225,0.522-0.342c0.005,0,0.005-0.005,0.01-0.005l0,0    c1.069-0.713,2.114-1.484,3.125-2.31c0.088,1.304,0.625,2.578,1.621,3.574c2.178,2.178,5.728,2.178,7.91,0    c2.178-2.183,2.178-5.732-0.005-7.91C84.341,76.343,83.057,75.806,81.753,75.723z M74.644,50.884    c-0.024,0.801-0.093,1.597-0.195,2.393c-0.005,0.02-0.005,0.039-0.01,0.063c-0.068,0.527-0.156,1.055-0.264,1.577    c0,0.015-0.005,0.029-0.01,0.044c-0.049,0.254-0.107,0.508-0.166,0.762c0,0.01-0.005,0.02-0.005,0.024    c-0.122,0.522-0.264,1.045-0.425,1.558c-0.005,0.02-0.01,0.039-0.02,0.063c-0.156,0.513-0.332,1.025-0.527,1.528    c-0.005,0.01-0.005,0.015-0.01,0.024c-0.093,0.244-0.195,0.488-0.298,0.732c-0.005,0.015-0.01,0.024-0.015,0.039    c-0.21,0.498-0.439,0.991-0.688,1.475c-0.01,0.02-0.02,0.039-0.029,0.059c-0.249,0.488-0.513,0.972-0.796,1.445    c-1.021,1.709-2.261,3.315-3.73,4.785s-3.076,2.71-4.785,3.73l0,0c-0.474,0.283-0.957,0.552-1.45,0.801    c-0.015,0.01-0.034,0.015-0.049,0.024c-0.488,0.249-0.981,0.479-1.479,0.688c-0.015,0.005-0.024,0.01-0.039,0.015    c-0.244,0.103-0.488,0.205-0.737,0.298c-0.005,0.005-0.01,0.005-0.015,0.01c-0.508,0.195-1.021,0.371-1.538,0.532    c-0.02,0.005-0.039,0.01-0.054,0.015c-0.518,0.161-1.04,0.303-1.563,0.425c-0.005,0-0.015,0.005-0.02,0.005    c-0.259,0.059-0.513,0.117-0.771,0.166c-0.01,0.005-0.024,0.01-0.034,0.01c-0.527,0.107-1.055,0.195-1.587,0.264    c-0.02,0.005-0.039,0.005-0.059,0.01c-0.796,0.103-1.592,0.171-2.393,0.195c-0.02,0.005-0.034,0.005-0.054,0.005    c-0.532,0.015-1.064,0.015-1.597,0c-0.02,0-0.039,0-0.054-0.005c-0.801-0.024-1.602-0.093-2.393-0.195    c-0.02-0.005-0.044-0.005-0.063-0.01c-0.527-0.068-1.055-0.156-1.577-0.264c-0.015,0-0.029-0.005-0.044-0.01    c-0.254-0.049-0.513-0.107-0.762-0.166c-0.01,0-0.02-0.005-0.029-0.005c-0.518-0.122-1.04-0.264-1.553-0.425    c-0.02-0.005-0.044-0.01-0.063-0.02c-0.513-0.156-1.025-0.332-1.528-0.527c-0.01-0.005-0.02-0.01-0.024-0.01    c-0.244-0.093-0.488-0.195-0.732-0.293c-0.015-0.01-0.029-0.015-0.044-0.02c-0.493-0.21-0.986-0.439-1.47-0.684    c-0.024-0.01-0.044-0.024-0.063-0.034c-0.488-0.249-0.967-0.513-1.44-0.796c-1.709-1.021-3.32-2.261-4.785-3.73    c-1.47-1.47-2.71-3.076-3.73-4.785c-0.283-0.474-0.552-0.957-0.801-1.445c-0.01-0.02-0.02-0.039-0.029-0.054    c-0.244-0.488-0.474-0.981-0.684-1.479c-0.005-0.015-0.01-0.024-0.02-0.039c-0.103-0.244-0.2-0.488-0.293-0.732    c-0.005-0.01-0.005-0.015-0.01-0.024c-0.195-0.503-0.371-1.016-0.532-1.528c-0.005-0.024-0.01-0.044-0.02-0.063    c-0.156-0.513-0.298-1.035-0.42-1.558c-0.005-0.005-0.005-0.015-0.005-0.024c-0.063-0.254-0.117-0.508-0.171-0.762    c0-0.015-0.005-0.029-0.005-0.044c-0.107-0.522-0.195-1.05-0.269-1.577c0-0.024-0.005-0.044-0.005-0.063    c-0.107-0.796-0.171-1.592-0.2-2.393c0-0.02,0-0.034,0-0.054c-0.02-0.532-0.02-1.064,0-1.597c0-0.02,0-0.039,0-0.054    c0.029-0.801,0.093-1.602,0.2-2.393c0-0.02,0.005-0.044,0.005-0.063c0.073-0.527,0.161-1.055,0.269-1.582    c0-0.01,0.005-0.024,0.005-0.039c0.054-0.254,0.107-0.513,0.171-0.767c0-0.005,0-0.015,0.005-0.02    c0.122-0.522,0.264-1.045,0.425-1.558c0.005-0.02,0.01-0.039,0.015-0.059c0.161-0.518,0.337-1.03,0.532-1.538    c0.005-0.005,0.005-0.01,0.005-0.015c0.098-0.249,0.195-0.493,0.303-0.737c0.005-0.015,0.01-0.024,0.015-0.039    c0.21-0.498,0.439-0.991,0.688-1.479c0.005-0.02,0.015-0.034,0.024-0.054c0.249-0.488,0.518-0.972,0.801-1.45l0,0    c1.021-1.704,2.261-3.311,3.73-4.78c1.465-1.47,3.076-2.71,4.78-3.73l0,0c0.479-0.288,0.967-0.557,1.46-0.806    c0.01-0.005,0.024-0.01,0.034-0.02c0.493-0.249,0.991-0.479,1.499-0.693c0.005,0,0.01-0.005,0.015-0.005    c0.757-0.322,1.528-0.605,2.314-0.845c0.01-0.005,0.024-0.01,0.034-0.015c0.522-0.161,1.05-0.303,1.577-0.43l0,0    c0.264-0.059,0.527-0.117,0.791-0.171c0.01,0,0.015-0.005,0.024-0.005c0.527-0.107,1.06-0.195,1.592-0.269    c0.02,0,0.034,0,0.054-0.005c0.796-0.103,1.597-0.171,2.397-0.2c0.015,0,0.034,0,0.054,0c0.532-0.02,1.064-0.02,1.597,0    c0.02,0,0.034,0,0.054,0c0.264,0.01,0.527,0.024,0.791,0.039l0,0c0.532,0.039,1.064,0.088,1.597,0.161    c0.024,0,0.044,0.005,0.068,0.01c0.527,0.068,1.05,0.156,1.572,0.264c0.02,0,0.039,0.005,0.054,0.01    c0.249,0.049,0.498,0.103,0.747,0.161c0.015,0.005,0.029,0.005,0.039,0.01c0.518,0.122,1.035,0.264,1.543,0.42    c0.029,0.01,0.054,0.015,0.078,0.024c0.513,0.156,1.016,0.332,1.519,0.522c0.015,0.01,0.029,0.015,0.039,0.02    c0.239,0.093,0.474,0.186,0.708,0.283c0.02,0.01,0.039,0.02,0.063,0.029c0.488,0.205,0.977,0.435,1.46,0.679    c0.024,0.01,0.049,0.024,0.073,0.034c0.483,0.249,0.962,0.513,1.431,0.791c1.709,1.021,3.32,2.266,4.79,3.735    s2.71,3.076,3.73,4.785c0.283,0.474,0.547,0.952,0.796,1.44c0.01,0.02,0.02,0.039,0.029,0.059    c0.249,0.488,0.479,0.981,0.688,1.479c0.005,0.01,0.01,0.024,0.015,0.039c0.103,0.244,0.205,0.488,0.298,0.732    c0,0.005,0.005,0.015,0.01,0.024c0.195,0.503,0.371,1.016,0.527,1.528c0.01,0.02,0.015,0.044,0.02,0.063    c0.161,0.513,0.303,1.035,0.425,1.558c0,0.005,0.005,0.015,0.005,0.024c0.059,0.254,0.117,0.508,0.166,0.762    c0.005,0.015,0.01,0.029,0.01,0.044c0.107,0.522,0.195,1.05,0.264,1.577c0.005,0.02,0.005,0.044,0.01,0.063    c0.103,0.791,0.171,1.592,0.195,2.388c0.005,0.02,0.005,0.039,0.005,0.059c0.015,0.532,0.015,1.064,0,1.597    C74.648,50.85,74.648,50.864,74.644,50.884z M22.456,77.603c-1.865-1.865-3.516-3.887-4.946-6.04l9.922-7.759    c1.069,1.758,2.363,3.423,3.887,4.941c1.504,1.504,3.164,2.808,4.937,3.892l-7.754,9.917    C26.348,81.123,24.321,79.473,22.456,77.603z M22.456,22.456c1.865-1.865,3.892-3.516,6.045-4.946l7.754,9.917    c-1.772,1.084-3.433,2.383-4.937,3.892c-1.523,1.519-2.817,3.179-3.887,4.941l-9.922-7.759    C18.94,26.348,20.591,24.326,22.456,22.456z M72.632,36.26c-1.074-1.763-2.368-3.423-3.887-4.941    c-1.509-1.509-3.164-2.808-4.941-3.892l7.759-9.917c2.153,1.431,4.175,3.081,6.04,4.946c1.885,1.885,3.53,3.911,4.946,6.045    L72.632,36.26z M78.955,16.289c1.313-1.313,3.457-1.313,4.775,0c1.313,1.318,1.313,3.462,0,4.775    c-1.318,1.318-3.462,1.318-4.775,0C77.637,19.751,77.637,17.607,78.955,16.289z M16.333,16.333c1.318-1.313,3.457-1.313,4.775,0    c1.318,1.318,1.318,3.457,0,4.775s-3.457,1.318-4.775,0C15.02,19.79,15.02,17.651,16.333,16.333z M21.152,83.73    c-1.318,1.313-3.457,1.313-4.775,0c-1.318-1.318-1.313-3.462,0-4.775c1.318-1.318,3.457-1.318,4.775,0    C22.471,80.269,22.471,82.412,21.152,83.73z M63.804,72.637c1.777-1.084,3.433-2.388,4.941-3.892    c1.519-1.519,2.813-3.184,3.887-4.941l9.917,7.759c-1.416,2.134-3.062,4.16-4.946,6.045c-1.86,1.86-3.882,3.511-6.04,4.946    L63.804,72.637z M83.774,83.687c-1.318,1.313-3.462,1.313-4.775,0c-1.318-1.318-1.318-3.462,0-4.775    c1.313-1.318,3.457-1.318,4.775,0C85.088,80.225,85.088,82.368,83.774,83.687z"/>
	</g>
</g>
<text x="0.0" y="117.5" font-size="5.0" font-weight="bold" font-family="Helvetica Neue, Helvetica, Arial-Unicode, Arial, Sans-serif" fill="#000000">Created by Alessandro Suraci</text><text x="0.0" y="122.5" font-size="5.0" font-weight="bold" font-family="Helvetica Neue, Helvetica, Arial-Unicode, Arial, Sans-serif" fill="#000000">from the Noun Project</text></svg>